<svg xmlns="http://www.w3.org/2000/svg" viewBox="0 0 24 24" class="valign-middle" aria-hidden="true"><path d="M12 0c6.6 0 12 5.4 12 12s-5.4 12-12 12S0 18.6 0 12 5.4 0 12 0zm6.5 8.2c-.8 0-1.6-.3-2.2-.7-.7-.5-1.2-1.3-1.4-2.2 0-.2-.1-.5-.1-.7h-2.4v10c0 1-.6 1.8-1.5 2.1-.3.1-.5.1-.8.1-.4 0-.7-.1-1-.3-.7-.4-1.1-1-1.1-1.8 0-1.2 1-2.2 2.2-2.2.2 0 .5 0 .7.1v-2.4c-.2 0-.5-.1-.7-.1-1.3 0-2.6.6-3.5 1.5-.7.8-1.1 1.7-1.1 2.7-.1 1.3.4 2.6 1.3 3.5.1.2.3.3.4.4.8.6 1.8 1 2.8 1 .2 0 .5 0 .7-.1 1-.1 1.9-.6 2.6-1.3.9-.9 1.3-2 1.4-3.2V9.2c.4.3.9.6 1.4.8.8.3 1.6.5 2.4.5V8.8l-.1-.6z"/></svg>